<!DOCTYPE svg PUBLIC "-//W3C//DTD SVG 1.1//EN" "http://www.w3.org/Graphics/SVG/1.1/DTD/svg11.dtd" [
	<!ENTITY ns_flows "http://ns.adobe.com/Flows/1.0/">
]><svg xmlns="http://www.w3.org/2000/svg" xmlns:xlink="http://www.w3.org/1999/xlink" width="271" height="364" viewBox="171.424 0 271 364" enable-background="new 171.424 0 271 364"><path fill="#fff" d="M418.237 124.487c-2.481-10.283-8.396-21.036-19.117-28.431-24.207-16.7-44.558-7.673-44.558-7.673s-58.595 13.016-62.443 32.836c-2.171 11.193 4.809 22.943 4.809 22.943l-2.419 42.332 82.113 33.073.79 27.848h-92.974c-7.562 0-13.686 5.189-13.686 11.599v3.093c0 6.416 6.124 11.609 13.686 11.609h68.621v58.766000000000005l-28.214 9.428c-.202-.036-.395-.11-.597-.11h-12.001c-3.313 0-5.992 4.931-5.992 11.016 0 6.09 2.679 11.026 5.992 11.026h11.997c3.306 0 5.989-4.937 5.989-11.026 0-2.776-.575-5.289-1.5-7.227l23.092-6.117-4.074 4.557h-9.906c-3.008 0-5.457 4.486-5.457 10.014 0 5.531 2.449 10.014 5.457 10.014h10.884v-.004l.008.004c3.011 0 5.445-4.482 5.445-10.014 0-3.555-1.013-6.658-2.531-8.436l7.035-6.867 27.044 7.166c-1.272 1.831-2.026 4.042-2.026 6.438 0 6.249 5.069 11.308 11.318 11.308s11.312-5.059 11.312-11.308-5.063-11.314-11.312-11.314c-1.742 0-3.373.423-4.845 1.127l-29.963-9.736v-58.702h40.083c7.561 0 13.686-5.193 13.686-11.609v-3.093c0-5.449-4.43-10.003-10.401-11.251 3.942-.031 10.437-1.66 13.764-11.258 12.064-34.856 20.333-85.148 24.869-110.866 1.633-9.279-6.556-11.004-23.978-1.155z"/><path fill="#F2F2F2" d="M242.058 222.72s-56.354 38.657-69.675 2.176c-5.826-16.54 16.829-23.276 16.829-23.276l44.051 2.261 8.795 18.839z"/><path fill="#333332" d="M247.681 220.044s-38.281 16.924-53.501 16.742c-4.536-.054-13.312-4.439-16.559-11.055-5.041-10.27 2.389-25.729 15.865-24.211 22.741 2.556 29.275-.047 29.275-.047s16.94-7.493 22.24-8.897c5.302-1.404 13.468 15.356 13.468 15.356l-10.788 12.112z"/><path fill="#F2F2F2" d="M191.113 202.558s7.274 2.343 10.986 11.773c3.966 10.088 2.993 18.051 2.993 18.051s-4.533 2.527-8.732 1.728c-4.206-.796-15.799-4.447-17.604-13.689-3.019-15.453 12.357-17.863 12.357-17.863zM205.584 207.854c4.528 4.454 5.99 10.408 5.887 16.597-.032 2.111 3.239 2.111 3.275 0 .114-7.042-1.722-13.877-6.848-18.918-1.505-1.478-3.82.832-2.314 2.321zM211.97 207.176c4.379 3.874 5.999 9.149 5.89 14.883-.042 2.115 3.231 2.104 3.272 0 .125-6.537-1.858-12.782-6.848-17.197-1.573-1.397-3.896.909-2.314 2.314zM218.356 206.212c4.317 3.669 6 8.663 5.888 14.229-.041 2.108 3.23 2.104 3.274 0 .127-6.355-1.919-12.359-6.848-16.547-1.599-1.357-3.924.95-2.314 2.318z"/><path fill="#231F20" d="M278.867 100.729c1.779 3.982 7.479 5.305 12.741 2.957l1.85-.826c5.259-2.349 8.083-7.474 6.307-11.459l-4.291-9.611c-1.777-3.978-7.482-5.304-12.74-2.956l-1.851.826c-5.26 2.348-8.083 7.479-6.306 11.457l4.29 9.612z"/><path fill="#FCD09E" d="M280.181 96.723c1.777 3.978 6.45 5.765 10.43 3.985l1.4-.626c3.979-1.774 5.768-6.444 3.99-10.426l-4.291-9.61c-1.777-3.978-6.447-5.765-10.426-3.987l-1.401.623c-3.98 1.779-5.77 6.447-3.993 10.425l4.291 9.616z"/><path fill="#231F20" d="M369.171 60.413c1.777 3.987-.007 8.65-3.992 10.428l-1.4.625c-3.984 1.777-8.648-.004-10.426-3.991l-4.29-9.608c-1.777-3.981.01-8.65 3.988-10.422l1.403-.629c3.981-1.777 8.649.008 10.427 3.99l4.29 9.607z"/><path fill="#FCD09E" d="M365.304 58.718c1.777 3.982-.011 8.646-3.985 10.423l-1.404.625c-3.984 1.781-8.651-.004-10.426-3.987l-4.294-9.612c-1.773-3.982.007-8.648 3.992-10.428l1.404-.625c3.978-1.776 8.645.008 10.426 3.99l4.287 9.614z"/><defs><path id="a" d="M279.178 74.392l35.091-15.666 35.085-15.664s34.385 35.164-17.201 81.824c-38.178-10.259-52.975-50.494-52.975-50.494z"/></defs><use xlink:href="#a" overflow="visible" fill="#FCD09E"/><clipPath id="b"><use xlink:href="#a" overflow="visible"/></clipPath><path clip-path="url(#b)" fill="#C2B59B" d="M321.296 127.495c1.237 2.783 6.513 3.131 11.78.778 5.262-2.349 8.524-6.508 7.284-9.291-1.248-2.783-6.523-3.135-11.784-.782-5.267 2.352-8.524 6.508-7.28 9.295z"/><path fill="#231F20" d="M311.678 52.929c-14.898 6.651-27.298 16.291-36.54 27.539l-8.942-20.032c-9.149-20.494.045-44.524 20.541-53.676l7.212-3.219c20.494-9.151 44.534.044 53.681 20.538l8.939 20.035c-14.537-.634-29.997 2.163-44.891 8.815zM287.695 40.608c16.108-6.942 50.856-14.922 66.596-11.665l.146.028h.015c1.18.251 1.717.954 1.788 1.766 4.439 9.939 7.617 17.059 12.054 27.004.981 2.191-1.656 3.719-4.12 3.858-67.436 3.924-81.131 23.888-81.085 36.198.011 2.472-4.649 2.69-5.628.495l-6.758-15.139-4.495-10.071c-1.62-3.63 6.072-25.833 21.487-32.474zM315.446 80.538l-3.967-8.88c-.893-2.003.362-4.52 2.797-5.604l15.029-6.714c2.432-1.083 5.137-.335 6.032 1.668l3.968 8.88c.889 1.999-.363 4.515-2.794 5.599l-15.029 6.71c-2.428 1.089-5.144.34-6.036-1.659zm-.238-12.387c-1.148.515-1.777 1.624-1.4 2.468l3.964 8.881c.38.842 1.624 1.115 2.775.604l15.029-6.71c1.159-.516 1.781-1.625 1.404-2.47l-3.963-8.88c-.377-.842-1.621-1.118-2.773-.604l-15.036 6.711zM285.518 93.898l-3.962-8.881c-.895-1.998.357-4.515 2.789-5.601l15.032-6.712c2.433-1.083 5.142-.337 6.034 1.664l3.968 8.878c.889 2.001-.359 4.518-2.795 5.606l-15.034 6.708c-2.429 1.085-5.137.341-6.032-1.662zm-.239-12.387c-1.149.514-1.777 1.625-1.398 2.471l3.961 8.877c.378.845 1.623 1.12 2.773.608l15.034-6.714c1.151-.512 1.781-1.621 1.404-2.47l-3.963-8.877c-.377-.847-1.625-1.122-2.779-.604l-15.032 6.709zM316.864 70.382c.349.778 1.148 1.181 1.788.893l13.931-6.219c.641-.284.879-1.15.53-1.926-.345-.777-1.148-1.173-1.784-.893l-13.935 6.222c-.637.287-.875 1.151-.53 1.923zM327.738 67.219c1.038 2.329.327 4.92-1.596 5.778-1.923.858-4.326-.336-5.368-2.666l6.964-3.112zM300.244 77.805c.349.78.111 1.642-.531 1.93l-13.933 6.214c-.636.288-1.44-.111-1.788-.892-.345-.772-.106-1.638.532-1.921l13.93-6.22c.645-.287 1.444.116 1.79.889zM290.627 83.789c1.039 2.33 3.447 3.528 5.369 2.666 1.919-.857 2.636-3.444 1.595-5.773l-6.964 3.107zM304.052 75.19l8.99-4.011.971 2.175-8.99 4.011z"/><path fill="#FCD09E" d="M385.313 144.868l-.807 28.572-27.872-2.813 9.011 18.523 39.084 3.893 7.287-43.337s3.121-5.502-9.04-9.83c-15.502-5.518-17.663 4.992-17.663 4.992z"/><path fill="#F2F2F2" d="M260.141 201.619l-27.822-53.922s-5.78-8.741 0-10.842c5.781-2.103 101.999-22.675 101.999-22.675s8.9-2.867 12.86 6.75c3.957 9.61 17.266 58.125 17.266 58.125l25.949 12.558-39.663-2.73-90.589 12.736z"/><path fill="#231F20" d="M363.818 180.565c-1.305-.737-2.374-1.269-3.106-1.51-25.384-8.35-87.49 15.491-115.158 16.557-8.444.319-14.689 6.945-15.803 19.935-.463 5.396 8.063 2.982 18.23 2.634 2.307-.078 5.498.054 9.354.345-2.306 3.537-4.134 7.682-4.649 12.396-1.757 16.074-9.701 99.15-9.701 99.15l38.165.288 5.152-81.938 46.395 7.18 34.342-.12s15.616-2.88 35.721-25.385c17.367-19.445-26.653-43.382-38.942-49.532z"/><path fill="#CACBD0" d="M252.047 326.698l-3.308 3.548-1.676-7.753-1.994-.113 1.689 15.384 7.53-10.593z"/><path fill="#333332" d="M279.848 354.72l3.143-6.683 1.32-7.099v-6.52l10.555-13.27-32.048-6.59-5.005 13.628.129-.245-.331.182-4.618-1.465-5.642 7.237c.75-3.149.867-7.521-2.283-11.517 1.375 8.531-9.741 15.281-9.741 15.281-15.58 2.495-35.62 7.084-35.349 14.158.448 11.553 3.057 10.863 3.057 10.863h77.142l-.766-8.087.437.127z"/><path fill="#fff" d="M219.919 340.689s16.277 1.053 20.265 4.479c3.995 3.43 4.028 7.912 4.028 7.912l-43.981.075s-2.807-7.074 5.867-9.133c5.341-1.267 13.821-3.333 13.821-3.333zM283.579 361.09c0 1.358-1.005 2.464-2.245 2.464h-80.736c-1.242 0-2.247-1.105-2.247-2.464v-5.545c0-1.361 1.004-2.464 2.247-2.464h80.736c1.24 0 2.245 1.103 2.245 2.464v5.545z"/><path fill="#CACBD0" d="M226.979 356.302h53.571v.967h-53.571z"/><path fill="#333332" d="M199.815 352.118h81.351v.963h-81.351z"/><path fill="#CACBD0" d="M226.979 359.793h53.571v.963h-53.571zM228.902 340.273c5.996-1.695 11.713.388 15.937 4.23 1.384 1.258 3.567-.661 2.186-1.916-4.96-4.515-11.946-6.903-18.948-4.927-1.892.534-1.082 3.154.825 2.613zM235.836 337.625c2.797-.692 5.305-.562 8.076.149 2.331.598 4.006 2.094 5.912 3.327 1.601 1.038 3.143-1.312 1.557-2.335-2.217-1.439-4.012-2.772-6.644-3.604-3.157-.992-6.541-.935-9.722-.146-1.915.476-1.102 3.089.821 2.609zM239.913 334.874c3.933-1.685 10.245-.319 12.929 2.73 1.194 1.368 3.879.021 2.664-1.365-3.772-4.294-11.546-6.107-17.155-3.704-1.791.768-.218 3.1 1.562 2.339z"/><path fill="#fff" d="M280.676 330.413c-1.402 3.139-4.352 4.87-6.594 3.864-2.239-1.003-2.919-4.358-1.517-7.49 1.399-3.139 4.354-4.866 6.597-3.864 2.234.999 2.919 4.351 1.514 7.49z"/><path fill="#FCD09E" d="M356.57 67.81s11.934 16.214 11.934 23.453c0 8.543-5.681 19.986-20.131 28.118-5.801-4.558-5.829-16.817-5.829-16.817l14.026-34.754z"/><path fill="#E53840" d="M303.32 156.914c2.685 5.81 1.233 12.202-3.25 14.275-4.484 2.073-10.296-.958-12.985-6.765-2.687-5.815-1.234-12.203 3.248-14.275 4.484-2.077 10.297.951 12.987 6.765zM294.104 141.507s-3.599.463-4.935 3.644c-1.336 3.187-.554 3.597-.554 3.597s2.007.102 4.511-2.468c2.503-2.57.978-4.773.978-4.773z"/></svg>